<svg version="1.1" preserveAspectRatio="none" xmlns="http://www.w3.org/2000/svg" width="500" height="500" viewBox="0 0 500 500"><rect width="100%" height="100%" fill="#0A2D85" fill-opacity="1"/><svg viewBox="21.236 280.5211 560.6116 156" width="333" height="92.66308438854995" x="83.5px" y="203.6685px" xmlns="http://www.w3.org/2000/svg" xmlns:xlink="http://www.w3.org/1999/xlink" preserveAspectRatio="none"><defs></defs><style>.aIptOCySncolors-3 {fill:#FFC80D;fill-opacity:1;}.aIptOCySncolors-4 {fill:#DD4E09;fill-opacity:1;}.aIptOCySncolors-5 {fill:#1841BC;fill-opacity:1;}.aIptOCySncolors-6 {fill:#585858;fill-opacity:1;}.aIptOCySncolors-7 {fill:#E9E9E9;fill-opacity:1;}.background {fill:#0A2D85;fill-opacity:1;}.companyName {fill:#E9E9E9;fill-opacity:1;}.icon1 {fill:#4974F5;fill-opacity:1;}.icon2 {fill:#D1CDCD;fill-opacity:1;}.icon3 {fill:#E9E9E9;fill-opacity:1;}.icon3-str {stroke:#E9E9E9;stroke-opacity:1;}.shapeStroke-str {stroke:#1841BC;stroke-opacity:1;}.text {fill:#E9E9E9;fill-opacity:1;}</style><g opacity="1" transform="rotate(0 21.236 280.5211)">
<svg width="156" height="156" x="21.236" y="280.5211" version="1.1" preserveAspectRatio="none" viewBox="0 0 156 156">
  <defs><rect x="0" y="0" width="156" height="156" rx="150px" ry="150px" id="id-3WKIowxM31741804234697"></rect></defs><use class="icon1 shapeStroke-str" style="stroke-width:0;" xlink:href="#id-3WKIowxM31741804234697"></use>
</svg>
</g><g opacity="1" transform="rotate(0 44.636 308.0673)">
<svg width="109.2" height="100.9077" x="44.636" y="308.0673" version="1.1" preserveAspectRatio="none" viewBox="20 26.07500457763672 160 147.85000610351562">
  <g transform="matrix(1 0 0 1 0 0)"><g><path d="M99.3 29.9L38.6 65v70l60.7 35v-68L160 66.6V65L99.3 29.9z" data-color="1" class="background"></path><path d="M180 56.6l-1.8-3.1-15.4 8.9-62.6-36.1c-.6-.3-1.3-.3-1.8 0l-62.5 36c-.6.3-.9.9-.9 1.6v72.2l-15 8.6 1.8 3.1 15.9-9.2 60.8 35.1c.6.3 1.3.3 1.8 0l62.6-36.1c.6-.3.9-.9.9-1.6V66l16.2-9.4zM38.6 65l60.7-35 59.8 34.5L38.6 134V65zm60.7 105.1l-58-33.5 58-33.5v67z" data-color="2" class="icon2"></path></g></g>
</svg>
</g><g opacity="1" transform="rotate(0 197.236 394.5211)">
<svg width="304.3465" height="24" x="197.236" y="394.5211" version="1.1" preserveAspectRatio="none" viewBox="0.76 -30.64 520.4399999999999 41.040000000000006">
  <g transform="matrix(1 0 0 1 0 0)" class="text"><path id="id-6izo4zJp22" d="M18.80-28.20L22.96-28.20L13.72-10.68L13.72 0L10.04 0L10.04-10.68L0.76-28.20L5-28.20L11.92-14.56L18.80-28.20Z M40.60-22.24Q43.76-22.24 46.26-20.88Q48.76-19.52 50.18-16.96Q51.60-14.40 51.60-10.96L51.60-10.96Q51.60-7.52 50.18-4.98Q48.76-2.44 46.26-1.08Q43.76 0.28 40.60 0.28L40.60 0.28Q37.44 0.28 34.94-1.08Q32.44-2.44 31-4.98Q29.56-7.52 29.56-10.96L29.56-10.96Q29.56-14.40 31-16.96Q32.44-19.52 34.94-20.88Q37.44-22.24 40.60-22.24L40.60-22.24ZM40.60-19.04Q38.64-19.04 36.98-18.16Q35.32-17.28 34.30-15.46Q33.28-13.64 33.28-10.96L33.28-10.96Q33.28-8.32 34.30-6.50Q35.32-4.68 36.98-3.80Q38.64-2.92 40.60-2.92L40.60-2.92Q42.56-2.92 44.22-3.80Q45.88-4.68 46.90-6.50Q47.92-8.32 47.92-10.96L47.92-10.96Q47.92-13.64 46.90-15.46Q45.88-17.28 44.22-18.16Q42.56-19.04 40.60-19.04L40.60-19.04Z M76.24-21.96L79.88-21.96L79.88 0L76.24 0L76.24-5.16Q75.40-2.48 73.26-1.06Q71.12 0.36 68.28 0.36L68.28 0.36Q64.48 0.36 62.12-2.10Q59.76-4.56 59.76-9.16L59.76-9.16L59.76-21.96L63.40-21.96L63.40-9.52Q63.40-6.24 65.08-4.46Q66.76-2.68 69.64-2.68L69.64-2.68Q72.64-2.68 74.44-4.62Q76.24-6.56 76.24-10.28L76.24-10.28L76.24-21.96Z M93.36-17.52Q94.44-19.80 96.52-21.06Q98.60-22.32 101.48-22.32L101.48-22.32L101.48-18.36L100.36-18.36Q97.28-18.36 95.32-16.78Q93.36-15.20 93.36-11.56L93.36-11.56L93.36 0L89.72 0L89.72-21.96L93.36-21.96L93.36-17.52Z M131.20-3.20L133.44-3.20L133.44 0L130.72 0Q127.36 0 125.70-1.60Q124.04-3.20 124.04-6.96L124.04-6.96L124.04-18.80L120.76-18.80L120.76-21.96L124.04-21.96L124.04-27.44L127.72-27.44L127.72-21.96L133.40-21.96L133.40-18.80L127.72-18.80L127.72-6.88Q127.72-4.76 128.50-3.98Q129.28-3.20 131.20-3.20L131.20-3.20Z M162.08-12.20Q162.08-11.04 161.92-10.20L161.92-10.20L144.36-10.20Q144.48-6.44 146.50-4.56Q148.52-2.68 151.44-2.68L151.44-2.68Q154.08-2.68 155.86-4.02Q157.64-5.36 158.04-7.60L158.04-7.60L161.92-7.60Q161.52-5.32 160.14-3.52Q158.76-1.72 156.56-0.72Q154.36 0.28 151.60 0.28L151.60 0.28Q148.44 0.28 146.00-1.08Q143.56-2.44 142.18-4.98Q140.80-7.52 140.80-10.96L140.80-10.96Q140.80-14.40 142.18-16.96Q143.56-19.52 146.00-20.88Q148.44-22.24 151.60-22.24L151.60-22.24Q154.80-22.24 157.18-20.88Q159.56-19.52 160.82-17.24Q162.08-14.96 162.08-12.20L162.08-12.20ZM158.40-11.96Q158.52-14.40 157.60-16.04Q156.68-17.68 155.08-18.48Q153.48-19.28 151.60-19.28L151.60-19.28Q148.60-19.28 146.56-17.42Q144.52-15.56 144.36-11.96L144.36-11.96L158.40-11.96Z M180.56-22.24Q184.76-22.24 187.52-20Q190.28-17.76 190.92-14L190.92-14L187.08-14Q186.68-16.36 184.90-17.70Q183.12-19.04 180.48-19.04L180.48-19.04Q178.56-19.04 176.98-18.16Q175.40-17.28 174.44-15.46Q173.48-13.64 173.48-10.96L173.48-10.96Q173.48-8.28 174.44-6.46Q175.40-4.64 176.98-3.76Q178.56-2.88 180.48-2.88L180.48-2.88Q183.12-2.88 184.90-4.24Q186.68-5.60 187.08-7.96L187.08-7.96L190.92-7.96Q190.28-4.16 187.52-1.94Q184.76 0.28 180.56 0.28L180.56 0.28Q177.40 0.28 174.96-1.08Q172.52-2.44 171.14-4.98Q169.76-7.52 169.76-10.96L169.76-10.96Q169.76-14.40 171.14-16.96Q172.52-19.52 174.96-20.88Q177.40-22.24 180.56-22.24L180.56-22.24Z M211.24-22.32Q215.08-22.32 217.44-19.86Q219.80-17.40 219.80-12.76L219.80-12.76L219.80 0L216.16 0L216.16-12.44Q216.16-15.72 214.48-17.48Q212.80-19.24 209.92-19.24L209.92-19.24Q206.92-19.24 205.12-17.30Q203.32-15.36 203.32-11.64L203.32-11.64L203.32 0L199.68 0L199.68-29.60L203.32-29.60L203.32-16.76Q204.16-19.44 206.30-20.88Q208.44-22.32 211.24-22.32L211.24-22.32Z M231.52-2.68Q232.08-0.92 232.08 0.60L232.08 0.60Q232.08 2.68 231.04 3.94Q230 5.20 227.92 5.20L227.92 5.20L227.92 3.64Q228.92 3.64 229.38 3.10Q229.84 2.56 229.84 1.40L229.84 1.40L229.84 1.04L227.80 1.04L227.80-2.68L231.52-2.68Z M264.24-22.24Q267.40-22.24 269.90-20.88Q272.40-19.52 273.82-16.96Q275.24-14.40 275.24-10.96L275.24-10.96Q275.24-7.52 273.82-4.98Q272.40-2.44 269.90-1.08Q267.40 0.28 264.24 0.28L264.24 0.28Q261.08 0.28 258.58-1.08Q256.08-2.44 254.64-4.98Q253.20-7.52 253.20-10.96L253.20-10.96Q253.20-14.40 254.64-16.96Q256.08-19.52 258.58-20.88Q261.08-22.24 264.24-22.24L264.24-22.24ZM264.24-19.04Q262.28-19.04 260.62-18.16Q258.96-17.28 257.94-15.46Q256.92-13.64 256.92-10.96L256.92-10.96Q256.92-8.32 257.94-6.50Q258.96-4.68 260.62-3.80Q262.28-2.92 264.24-2.92L264.24-2.92Q266.20-2.92 267.86-3.80Q269.52-4.68 270.54-6.50Q271.56-8.32 271.56-10.96L271.56-10.96Q271.56-13.64 270.54-15.46Q269.52-17.28 267.86-18.16Q266.20-19.04 264.24-19.04L264.24-19.04Z M299.88-21.96L303.52-21.96L303.52 0L299.88 0L299.88-5.16Q299.04-2.48 296.90-1.06Q294.76 0.36 291.92 0.36L291.92 0.36Q288.12 0.36 285.76-2.10Q283.40-4.56 283.40-9.16L283.40-9.16L283.40-21.96L287.04-21.96L287.04-9.52Q287.04-6.24 288.72-4.46Q290.40-2.68 293.28-2.68L293.28-2.68Q296.28-2.68 298.08-4.62Q299.88-6.56 299.88-10.28L299.88-10.28L299.88-21.96Z M317-17.52Q318.08-19.80 320.16-21.06Q322.24-22.32 325.12-22.32L325.12-22.32L325.12-18.36L324-18.36Q320.92-18.36 318.96-16.78Q317-15.20 317-11.56L317-11.56L317 0L313.36 0L313.36-21.96L317-21.96L317-17.52Z M358.72-22.24Q361.64-22.24 363.92-20.88Q366.20-19.52 367.50-16.96Q368.80-14.40 368.80-10.96L368.80-10.96Q368.80-7.52 367.50-4.98Q366.20-2.44 363.92-1.08Q361.64 0.28 358.72 0.28L358.72 0.28Q355.52 0.28 353.30-1.34Q351.08-2.96 350.24-5.60L350.24-5.60L350.24 10.40L346.60 10.40L346.60-21.96L350.24-21.96L350.24-16.36Q351.08-19 353.30-20.62Q355.52-22.24 358.72-22.24L358.72-22.24ZM357.68-19Q355.56-19 353.84-18.02Q352.12-17.04 351.16-15.20Q350.20-13.36 350.20-10.96L350.20-10.96Q350.20-8.56 351.16-6.74Q352.12-4.92 353.84-3.92Q355.56-2.92 357.68-2.92L357.68-2.92Q361.08-2.92 363.10-5.06Q365.12-7.20 365.12-10.96L365.12-10.96Q365.12-14.72 363.10-16.86Q361.08-19 357.68-19L357.68-19Z M386.56-22.24Q389.76-22.24 391.98-20.64Q394.20-19.04 395.08-16.36L395.08-16.36L395.08-21.96L398.72-21.96L398.72 0L395.08 0L395.08-5.60Q394.20-2.92 391.98-1.32Q389.76 0.28 386.56 0.28L386.56 0.28Q383.64 0.28 381.36-1.08Q379.08-2.44 377.78-4.98Q376.48-7.52 376.48-10.96L376.48-10.96Q376.48-14.40 377.78-16.96Q379.08-19.52 381.36-20.88Q383.64-22.24 386.56-22.24L386.56-22.24ZM387.60-19Q384.24-19 382.22-16.86Q380.20-14.72 380.20-10.96L380.20-10.96Q380.20-7.20 382.22-5.06Q384.24-2.92 387.60-2.92L387.60-2.92Q389.76-2.92 391.46-3.92Q393.16-4.92 394.12-6.74Q395.08-8.56 395.08-10.96L395.08-10.96Q395.08-13.36 394.12-15.20Q393.16-17.04 391.46-18.02Q389.76-19 387.60-19L387.60-19Z M415.40-22.24Q419.12-22.24 421.38-20.30Q423.64-18.36 424.12-15.08L424.12-15.08L420.64-15.08Q420.40-17.04 419.02-18.30Q417.64-19.56 415.32-19.56L415.32-19.56Q413.36-19.56 412.26-18.62Q411.16-17.68 411.16-16.08L411.16-16.08Q411.16-14.88 411.90-14.14Q412.64-13.40 413.74-13.02Q414.84-12.64 416.76-12.20L416.76-12.20Q419.20-11.64 420.70-11.06Q422.20-10.48 423.26-9.20Q424.32-7.92 424.32-5.76L424.32-5.76Q424.32-3.08 422.30-1.40Q420.28 0.28 416.92 0.28L416.92 0.28Q413.00 0.28 410.52-1.60Q408.04-3.48 407.60-6.84L407.60-6.84L411.12-6.84Q411.32-4.84 412.86-3.60Q414.40-2.36 416.92-2.36L416.92-2.36Q418.80-2.36 419.86-3.32Q420.92-4.28 420.92-5.84L420.92-5.84Q420.92-7.12 420.16-7.88Q419.40-8.64 418.28-9.04Q417.16-9.44 415.20-9.88L415.20-9.88Q412.76-10.44 411.30-11Q409.84-11.56 408.82-12.78Q407.80-14 407.80-16.08L407.80-16.08Q407.80-18.84 409.84-20.54Q411.88-22.24 415.40-22.24L415.40-22.24Z M440.08-22.24Q443.80-22.24 446.06-20.30Q448.32-18.36 448.80-15.08L448.80-15.08L445.32-15.08Q445.08-17.04 443.70-18.30Q442.32-19.56 440-19.56L440-19.56Q438.04-19.56 436.94-18.62Q435.84-17.68 435.84-16.08L435.84-16.08Q435.84-14.88 436.58-14.14Q437.32-13.40 438.42-13.02Q439.52-12.64 441.44-12.20L441.44-12.20Q443.88-11.64 445.38-11.06Q446.88-10.48 447.94-9.20Q449-7.92 449-5.76L449-5.76Q449-3.08 446.98-1.40Q444.96 0.28 441.60 0.28L441.60 0.28Q437.68 0.28 435.20-1.60Q432.72-3.48 432.28-6.84L432.28-6.84L435.80-6.84Q436-4.84 437.54-3.60Q439.08-2.36 441.60-2.36L441.60-2.36Q443.48-2.36 444.54-3.32Q445.60-4.28 445.60-5.84L445.60-5.84Q445.60-7.12 444.84-7.88Q444.08-8.64 442.96-9.04Q441.84-9.44 439.88-9.88L439.88-9.88Q437.44-10.44 435.98-11Q434.52-11.56 433.50-12.78Q432.48-14 432.48-16.08L432.48-16.08Q432.48-18.84 434.52-20.54Q436.56-22.24 440.08-22.24L440.08-22.24Z M457.24-28.40Q457.24-29.40 457.92-30.02Q458.60-30.64 459.72-30.64L459.72-30.64Q460.84-30.64 461.52-30.02Q462.20-29.40 462.20-28.40L462.20-28.40Q462.20-27.40 461.52-26.78Q460.84-26.16 459.72-26.16L459.72-26.16Q458.60-26.16 457.92-26.78Q457.24-27.40 457.24-28.40L457.24-28.40ZM457.88-21.96L461.52-21.96L461.52 0L457.88 0L457.88-21.96Z M481.32-22.24Q484.48-22.24 486.98-20.88Q489.48-19.52 490.90-16.96Q492.32-14.40 492.32-10.96L492.32-10.96Q492.32-7.52 490.90-4.98Q489.48-2.44 486.98-1.08Q484.48 0.28 481.32 0.28L481.32 0.28Q478.16 0.28 475.66-1.08Q473.16-2.44 471.72-4.98Q470.28-7.52 470.28-10.96L470.28-10.96Q470.28-14.40 471.72-16.96Q473.16-19.52 475.66-20.88Q478.16-22.24 481.32-22.24L481.32-22.24ZM481.32-19.04Q479.36-19.04 477.70-18.16Q476.04-17.28 475.02-15.46Q474-13.64 474-10.96L474-10.96Q474-8.32 475.02-6.50Q476.04-4.68 477.70-3.80Q479.36-2.92 481.32-2.92L481.32-2.92Q483.28-2.92 484.94-3.80Q486.60-4.68 487.62-6.50Q488.64-8.32 488.64-10.96L488.64-10.96Q488.64-13.64 487.62-15.46Q486.60-17.28 484.94-18.16Q483.28-19.04 481.32-19.04L481.32-19.04Z M512.64-22.32Q516.48-22.32 518.84-19.86Q521.20-17.40 521.20-12.76L521.20-12.76L521.20 0L517.56 0L517.56-12.44Q517.56-15.72 515.88-17.48Q514.20-19.24 511.32-19.24L511.32-19.24Q508.32-19.24 506.52-17.30Q504.72-15.36 504.72-11.64L504.72-11.64L504.72 0L501.08 0L501.08-21.96L504.72-21.96L504.72-16.76Q505.56-19.44 507.70-20.88Q509.84-22.32 512.64-22.32L512.64-22.32Z"/></g>
</svg>
</g><g opacity="1" transform="rotate(0 197.236 298.5211)">
<svg width="384.6116" height="80" x="197.236" y="298.5211" version="1.1" preserveAspectRatio="none" viewBox="1.52 -32.2 205.96 42.84">
  <g transform="matrix(1 0 0 1 0 0)" class="companyName"><path id="id-D6z1nYkh9" d="M10.48-22.60Q14.72-22.60 17.26-20.48Q19.80-18.36 20.44-14.88L20.44-14.88L14.04-14.88Q13.76-16.24 12.78-17.02Q11.80-17.80 10.32-17.80L10.32-17.80Q9.16-17.80 8.56-17.30Q7.96-16.80 7.96-15.88L7.96-15.88Q7.96-14.84 9.06-14.32Q10.16-13.80 12.52-13.28L12.52-13.28Q15.08-12.68 16.72-12.06Q18.36-11.44 19.56-10.04Q20.76-8.64 20.76-6.28L20.76-6.28Q20.76-4.36 19.72-2.88Q18.68-1.40 16.72-0.56Q14.76 0.28 12.08 0.28L12.08 0.28Q7.56 0.28 4.84-1.72Q2.12-3.72 1.52-7.44L1.52-7.44L8.12-7.44Q8.28-6 9.34-5.24Q10.40-4.48 12.08-4.48L12.08-4.48Q13.24-4.48 13.84-5.02Q14.44-5.56 14.44-6.44L14.44-6.44Q14.44-7.60 13.34-8.10Q12.24-8.60 9.76-9.16L9.76-9.16Q7.28-9.68 5.68-10.28Q4.08-10.88 2.92-12.22Q1.76-13.56 1.76-15.88L1.76-15.88Q1.76-18.88 4.04-20.74Q6.32-22.60 10.48-22.60L10.48-22.60Z M40.68-22.32L47.56-22.32L47.56 0L40.68 0L40.68-4.04Q39.72-2.08 37.82-0.92Q35.92 0.24 33.40 0.24L33.40 0.24Q29.56 0.24 27.30-2.32Q25.04-4.88 25.04-9.36L25.04-9.36L25.04-22.32L31.84-22.32L31.84-10.20Q31.84-7.92 33.02-6.66Q34.20-5.40 36.20-5.40L36.20-5.40Q38.28-5.40 39.48-6.72Q40.68-8.04 40.68-10.48L40.68-10.48L40.68-22.32Z M67-22.60Q69.76-22.60 71.94-21.22Q74.12-19.84 75.38-17.26Q76.64-14.68 76.64-11.16L76.64-11.16Q76.64-7.68 75.38-5.08Q74.12-2.48 71.94-1.10Q69.76 0.28 67 0.28L67 0.28Q64.44 0.28 62.60-0.88Q60.76-2.04 59.92-4.04L59.92-4.04L59.92 10.64L53.08 10.64L53.08-22.32L59.92-22.32L59.92-18.28Q60.76-20.28 62.60-21.44Q64.44-22.60 67-22.60L67-22.60ZM64.80-16.60Q62.64-16.60 61.26-15.14Q59.88-13.68 59.88-11.16L59.88-11.16Q59.88-8.68 61.26-7.20Q62.64-5.72 64.80-5.72L64.80-5.72Q67-5.72 68.34-7.16Q69.68-8.60 69.68-11.16L69.68-11.16Q69.68-13.72 68.34-15.16Q67-16.60 64.80-16.60L64.80-16.60Z M102.20-11.76Q102.20-10.92 102-9.92L102-9.92L86.52-9.92Q86.64-7.40 87.80-6.30Q88.96-5.20 90.76-5.20L90.76-5.20Q92.28-5.20 93.28-5.96Q94.28-6.72 94.60-7.92L94.60-7.92L101.84-7.92Q101.40-5.56 99.92-3.70Q98.44-1.84 96.16-0.78Q93.88 0.28 91.08 0.28L91.08 0.28Q87.80 0.28 85.26-1.10Q82.72-2.48 81.28-5.08Q79.84-7.68 79.84-11.16L79.84-11.16Q79.84-14.68 81.26-17.26Q82.68-19.84 85.24-21.22Q87.80-22.60 91.08-22.60L91.08-22.60Q94.40-22.60 96.92-21.24Q99.44-19.88 100.82-17.42Q102.20-14.96 102.20-11.76L102.20-11.76ZM95.28-12.80Q95.32-15 94.10-16.10Q92.88-17.20 91.08-17.20L91.08-17.20Q89.20-17.20 87.96-16.08Q86.72-14.96 86.56-12.80L86.56-12.80L95.28-12.80Z M113.40-18.12Q114.68-20.16 116.70-21.36Q118.72-22.56 121.08-22.56L121.08-22.56L121.08-15.24L119.12-15.24Q116.40-15.24 114.90-14.08Q113.40-12.92 113.40-10.16L113.40-10.16L113.40 0L106.56 0L106.56-22.32L113.40-22.32L113.40-18.12Z M131.60-28.28L131.60-5.24L140.72-5.24L140.72 0L124.76 0L124.76-28.28L131.60-28.28Z M144.04-28.60Q144.04-30.16 145.16-31.18Q146.28-32.20 148.12-32.20L148.12-32.20Q149.96-32.20 151.08-31.18Q152.20-30.16 152.20-28.60L152.20-28.60Q152.20-27.08 151.08-26.06Q149.96-25.04 148.12-25.04L148.12-25.04Q146.28-25.04 145.16-26.06Q144.04-27.08 144.04-28.60L144.04-28.60ZM144.68-22.32L151.52-22.32L151.52 0L144.68 0L144.68-22.32Z M165.52-22.60Q168.08-22.60 169.92-21.44Q171.76-20.28 172.64-18.28L172.64-18.28L172.64-22.32L179.44-22.32L179.44 0L172.64 0L172.64-4.04Q171.76-2.04 169.92-0.88Q168.08 0.28 165.52 0.28L165.52 0.28Q162.76 0.28 160.58-1.10Q158.40-2.48 157.14-5.08Q155.88-7.68 155.88-11.16L155.88-11.16Q155.88-14.68 157.14-17.26Q158.40-19.84 160.58-21.22Q162.76-22.60 165.52-22.60L165.52-22.60ZM167.72-16.60Q165.52-16.60 164.18-15.16Q162.84-13.72 162.84-11.16L162.84-11.16Q162.84-8.60 164.18-7.16Q165.52-5.72 167.72-5.72L167.72-5.72Q169.88-5.72 171.26-7.20Q172.64-8.68 172.64-11.16L172.64-11.16Q172.64-13.68 171.26-15.14Q169.88-16.60 167.72-16.60L167.72-16.60Z M199.12-22.56Q202.96-22.56 205.22-20Q207.48-17.44 207.48-12.96L207.48-12.96L207.48 0L200.64 0L200.64-12.16Q200.64-14.40 199.46-15.66Q198.28-16.92 196.32-16.92L196.32-16.92Q194.24-16.92 193.02-15.60Q191.80-14.28 191.80-11.84L191.80-11.84L191.80 0L184.96 0L184.96-22.32L191.80-22.32L191.80-18.24Q192.76-20.24 194.66-21.40Q196.56-22.56 199.12-22.56L199.12-22.56Z"/></g>
</svg>
</g></svg></svg>